HIERARCHY
ROOT Hips
{
	OFFSET	0.00	0.00	0.00
	CHANNELS 6 Xposition Yposition Zposition Zrotation Xrotation Yrotation
	JOINT LeftUpLeg
	{
		OFFSET	 0.126116	-0.065224	 0.014019
		CHANNELS 3 Zrotation Xrotation Yrotation
		JOINT LeftLeg
		{
			OFFSET	 0.000000	 0.569914	 0.000000
			CHANNELS 3 Zrotation Xrotation Yrotation
			JOINT LeftFoot
			{
				OFFSET	 0.000000	 0.544423	 0.000000
				CHANNELS 3 Zrotation Xrotation Yrotation
				JOINT LeftToeBase
				{
					OFFSET	 0.000000	 0.207117	 0.000000
					CHANNELS 3 Zrotation Xrotation Yrotation
					End Site
					{
						OFFSET	 0.000000	 0.207117	 0.000000
					}
				}
			}
		}
	}
	JOINT RightUpLeg
	{
		OFFSET	-0.124023	-0.065224	 0.008373
		CHANNELS 3 Zrotation Xrotation Yrotation
		JOINT RightLeg
		{
			OFFSET	 0.000000	 0.570047	 0.000000
			CHANNELS 3 Zrotation Xrotation Yrotation
			JOINT RightFoot
			{
				OFFSET	 0.000000	 0.544354	 0.000000
				CHANNELS 3 Zrotation Xrotation Yrotation
				JOINT RightToeBase
				{
					OFFSET	 0.000000	 0.207540	 0.000000
					CHANNELS 3 Zrotation Xrotation Yrotation
					End Site
					{
						OFFSET	 0.000000	 0.207540	 0.000000
					}
				}
			}
		}
	}
	JOINT Spine
	{
		OFFSET	 0.000184	 0.117403	 0.007763
		CHANNELS 3 Zrotation Xrotation Yrotation
		JOINT Spine1
		{
			OFFSET	 0.000000	 0.137269	 0.000000
			CHANNELS 3 Zrotation Xrotation Yrotation
			JOINT Spine2
			{
				OFFSET	 0.000000	 0.156879	 0.000000
				CHANNELS 3 Zrotation Xrotation Yrotation
				JOINT LeftShoulder
				{
					OFFSET	 0.080501	 0.160143	 0.002496
					CHANNELS 3 Zrotation Xrotation Yrotation
					JOINT LeftArm
					{
						OFFSET	 0.000000	 0.164363	 0.000000
						CHANNELS 3 Zrotation Xrotation Yrotation
						JOINT LeftForeArm
						{
							OFFSET	 0.000000	 0.364576	 0.000000
							CHANNELS 3 Zrotation Xrotation Yrotation
							JOINT LeftHand
							{
								OFFSET	 0.000000	 0.360812	 0.000000
								CHANNELS 3 Zrotation Xrotation Yrotation
								JOINT LeftHandIndex1
								{
									OFFSET	 0.000000	 0.086006	 0.000000
									CHANNELS 3 Zrotation Xrotation Yrotation
									JOINT LeftHandIndex2
									{
										OFFSET	 0.000000	 0.047237	 0.000000
										CHANNELS 3 Zrotation Xrotation Yrotation
										JOINT LeftHandIndex3
										{
											OFFSET	-0.004284	 0.038165	 0.000551
											CHANNELS 3 Zrotation Xrotation Yrotation
											End Site
											{
												OFFSET	-0.004284	 0.038165	 0.000551
											}
										}
									}
								}
							}
						}
					}
				}
				JOINT Neck
				{
					OFFSET	 0.000000	 0.176489	 0.000000
					CHANNELS 3 Zrotation Xrotation Yrotation
					JOINT Head
					{
						OFFSET	 0.000000	 0.077941	 0.001747
						CHANNELS 3 Zrotation Xrotation Yrotation
						End Site
						{
							OFFSET	 0.000000	 0.077941	 0.001747
						}
					}
				}
				JOINT RightShoulder
				{
					OFFSET	-0.080363	 0.159706	-0.000306
					CHANNELS 3 Zrotation Xrotation Yrotation
					JOINT RightArm
					{
						OFFSET	 0.000000	 0.164196	 0.000000
						CHANNELS 3 Zrotation Xrotation Yrotation
						JOINT RightForeArm
						{
							OFFSET	 0.000000	 0.365611	 0.000000
							CHANNELS 3 Zrotation Xrotation Yrotation
							JOINT RightHand
							{
								OFFSET	 0.000000	 0.360648	 0.000000
								CHANNELS 3 Zrotation Xrotation Yrotation
								JOINT RightHandIndex1
								{
									OFFSET	 0.000000	 0.069977	 0.000000
									CHANNELS 3 Zrotation Xrotation Yrotation
									JOINT RightHandIndex2
									{
										OFFSET	 0.000000	 0.052305	 0.000000
										CHANNELS 3 Zrotation Xrotation Yrotation
										JOINT RightHandIndex3
										{
											OFFSET	 0.009002	 0.042196	 0.000782
											CHANNELS 3 Zrotation Xrotation Yrotation
											End Site
											{
												OFFSET	 0.009002	 0.042196	 0.000782
											}
										}
									}
								}
							}
						}
					}
				}
			}
		}
	}
}
MOTION
Frames:    6
Frame Time: 0.03333334
 0.436629	 1.273905	 0.406606	 0.535720	-2.378392	-177.254200	-179.205500	 6.831872	-12.255390	 3.473722	-12.848070	 5.979017	 5.403196	 69.796910	-1.600834	 1.292262	 28.425850	-2.713146	 176.646500	 7.663877	 13.878710	-2.064878	-10.617460	 0.843933	 0.593761	 66.222700	-5.817234	-1.288183	 28.361890	 2.710176	-0.107336	 6.438876	-2.043217	 0.646790	-6.518700	-1.137311	-0.005849	 7.595964	 2.913544	-117.463000	-0.781051	 89.957950	 40.367620	 1.369116	-6.432023	 4.161192	-0.336997	 34.718520	-28.065090	 8.636770	-3.072530	-6.580301	 5.266122	 0.000000	 0.000000	 0.000000	 0.000000	 0.000000	 0.000000	 0.000000	 4.797653	 27.124400	 1.710880	-3.986153	-16.172790	 0.852242	 116.293700	-0.441860	-90.568550	-8.895781	-5.970852	 20.342010	-11.961750	 0.285027	-57.178170	-14.349170	-3.444008	 12.519740	 15.208500	 5.323790	 0.000000	 0.000000	 0.000000	 0.000000	 0.000000	 0.000000	 0.000000
 0.436668	 1.274049	 0.406835	 0.548507	-2.460488	-177.251500	-179.105800	 6.893664	-13.036840	 3.450418	-12.764830	 5.982758	 5.506148	 69.725960	-1.629049	 1.292262	 28.425850	-2.713146	 176.585500	 7.701293	 14.662400	-2.041578	-10.500370	 0.835107	 0.421771	 66.128000	-5.757613	-1.288183	 28.361890	 2.710176	-0.116778	 6.413850	-1.890510	 0.646695	-6.634523	-1.137432	-0.004294	 7.700550	 2.911454	-117.501600	-0.792833	 89.952680	 40.239220	 1.366966	-6.351825	 4.170177	-0.324618	 34.724600	-27.800730	 8.601303	-2.991486	-6.580301	 5.266122	 0.000000	 0.000000	 0.000000	 0.000000	 0.000000	 0.000000	 0.000000	 4.824502	 27.208950	 1.688604	-3.989131	-16.214990	 0.856764	 116.354600	-0.458692	-90.562760	-12.091590	-7.041053	 19.942150	-5.133715	 0.141105	-57.235680	-16.477340	-6.165933	 11.550180	 15.208500	 5.323790	 0.000000	 0.000000	 0.000000	 0.000000	 0.000000	 0.000000	 0.000000
 0.437109	 1.276482	 0.410189	 0.554839	-3.302298	-177.194100	-178.798500	 6.945960	-16.419710	 2.878961	-10.706110	 6.022277	 6.438846	 68.352290	-1.855216	 1.292262	 28.425850	-2.713146	 176.384000	 7.525878	 18.141430	-1.551798	-8.019817	 0.687437	-1.153100	 64.588490	-5.082192	-1.288183	 28.361890	 2.710176	-0.477433	 6.561403	 0.789165	 0.650562	-8.530078	-1.167690	 0.019379	 9.471874	 2.879150	-118.179800	-0.999060	 89.859210	 39.371330	-0.566368	-4.752051	 4.437426	-0.125250	 34.904250	-23.696480	 10.391250	-1.026572	-6.580301	 5.266122	 0.000000	 0.000000	 0.000000	 0.000000	 0.000000	 0.000000	 0.000000	 5.305460	 28.691880	 1.287253	-4.041204	-16.955370	 0.937972	 117.424100	-0.752889	-90.458270	-11.810880	-9.510324	 19.321410	-5.155108	 0.437001	-57.941840	-20.098450	-3.471034	 9.040356	 15.208500	 5.323790	 0.000000	 0.000000	 0.000000	 0.000000	 0.000000	 0.000000	 0.000000
 0.439254	 1.291375	 0.430997	 0.193819	-6.427340	-176.944100	-179.319900	 8.558198	-21.970320	 1.306124	-4.904135	 6.531422	 10.425420	 63.858180	-2.775534	 1.292262	 28.425850	-2.713146	 175.737400	 10.503170	 24.390080	-0.960773	-4.982075	-0.262035	-6.168651	 61.903310	-2.936244	-1.288183	 28.361890	 2.710176	-2.780609	 7.301191	 13.334570	 0.713191	-15.882010	-1.484552	 0.076555	 17.148280	 2.828874	-121.433900	-1.970868	 89.377750	 34.030540	-15.322830	 1.284760	 5.838021	 0.595081	 37.155970	-0.659802	 25.984810	 3.178918	-6.580301	 5.266122	 0.000000	 0.000000	 0.000000	 0.000000	 0.000000	 0.000000	 0.000000	 7.905435	 35.757080	-0.946770	-4.285490	-20.484360	 1.378828	 122.559700	-2.133390	-89.881820	-8.858485	-27.164790	 17.381850	-5.513318	 1.763664	-63.566320	-42.059100	 11.976920	 5.988845	 15.208500	 5.323790	 0.000000	 0.000000	 0.000000	 0.000000	 0.000000	 0.000000	 0.000000
 0.439611	 1.293429	 0.433852	 0.148588	-6.800211	-176.910900	-179.365700	 9.106217	-22.684110	 1.303577	-4.894593	 6.628892	 11.088440	 63.673690	-3.026465	 1.292262	 28.425850	-2.713146	 175.633600	 11.040480	 25.204680	-0.958302	-4.972952	-0.384439	-6.863327	 61.792010	-2.663656	-1.288183	 28.361890	 2.710176	-3.105121	 7.331939	 14.984590	 0.668667	-16.769380	-1.551454	 0.101934	 18.150300	 2.834044	-121.885500	-2.103289	 89.306680	 33.514030	-17.108920	 1.922944	 6.035199	 0.668174	 37.586780	 2.256705	 28.226970	 2.984878	-6.580301	 5.266122	 0.000000	 0.000000	 0.000000	 0.000000	 0.000000	 0.000000	 0.000000	 8.310565	 36.727980	-1.303104	-4.318505	-20.970200	 1.446560	 123.272400	-2.320322	-89.792270	-8.544459	-29.073770	 17.197470	-5.593750	 1.938912	-64.539260	-44.841170	 13.673150	 6.090327	 15.208500	 5.323790	 0.000000	 0.000000	 0.000000	 0.000000	 0.000000	 0.000000	 0.000000
 0.439937	 1.295098	 0.436165	 0.116754	-7.106060	-176.881700	-179.385400	 9.549022	-23.425390	 1.301574	-4.887092	 6.711437	 11.691370	 63.534350	-3.245464	 1.292262	 28.425850	-2.713146	 175.548400	 11.472220	 26.036770	-0.956838	-4.965518	-0.493572	-7.500326	 61.724320	-2.427850	-1.288183	 28.361890	 2.710176	-3.374060	 7.343459	 16.362250	 0.607123	-17.500680	-1.614922	 0.132680	 18.991860	 2.840586	-122.269800	-2.215492	 89.245430	 33.207600	-18.452010	 2.452959	 6.203115	 0.725810	 37.967130	 4.542401	 30.049380	 2.721514	-6.580301	 5.266122	 0.000000	 0.000000	 0.000000	 0.000000	 0.000000	 0.000000	 0.000000	 8.665110	 37.551830	-1.616484	-4.346406	-21.382690	 1.505446	 123.878800	-2.478417	-89.714260	-8.359663	-30.460260	 17.040100	-5.671113	 2.086845	-65.390770	-47.023660	 15.009260	 6.165844	 15.208500	 5.323790	 0.000000	 0.000000	 0.000000	 0.000000	 0.000000	 0.000000	 0.000000
